<svg version="1.2" xmlns="http://www.w3.org/2000/svg" viewBox="0 0 1000 1040" width="1000" height="1040">
	<title>studface_logo</title>
	<defs>
		<linearGradient id="g1" x1="-139" y1="592.2" x2="710.1" y2="592.2" gradientUnits="userSpaceOnUse">
			<stop offset="0" stop-color="#00a8ff"/>
			<stop offset="1" stop-color="#ff3af3"/>
		</linearGradient>
		<linearGradient id="g2" x1="29.8" y1="-100.8" x2="1210.1" y2="1039" gradientUnits="userSpaceOnUse">
			<stop offset="0" stop-color="#00a8ff"/>
			<stop offset="1" stop-color="#ff3af3"/>
		</linearGradient>
	</defs>
	<style>
		.s0 { fill: url(#g1) } 
		.s1 { fill: url(#g2) } 
	</style>
	<g id="Background">
		<path id="Path 1" class="s0" d="m500 8c0.3 0 1 0.8 1.7 1.9 0.6 1 10.3 8.3 21.5 16.2 11.2 7.8 27.7 19.5 36.8 25.9 9.1 6.4 25.5 17.9 36.5 25.7 11 7.7 34.6 24.3 52.5 36.8 17.9 12.5 39.3 27.5 47.5 33.3 8.3 5.8 20.9 14.7 28 19.7 7.1 5 24.5 17.2 38.5 27 14 9.9 30 21.1 35.5 25 5.5 3.9 17.2 12.1 26 18.3 8.8 6.1 19.8 14.2 24.4 17.9 4.7 3.7 12.9 11.5 18.3 17.3 5.4 5.8 12.8 14.6 16.4 19.5 3.6 4.9 9.6 15.3 13.4 23 3.8 7.7 8.2 18.1 9.8 23 1.6 4.9 3.9 13.7 5 19.5 1.1 5.8 2.7 16.4 3.6 23.5 0.8 7.1 2.3 19.5 3.1 27.5 0.9 8 2.2 19.7 3 26 0.8 6.3 2.1 18.3 3 26.5 0.8 8.3 1.7 16.7 2 18.8 0.3 2 0.3 3.7 0 3.7-0.3 0-5.9-3.5-12.5-7.7-6.6-4.3-20.2-13.1-30.3-19.6-10-6.5-23.6-15.2-30.2-19.4-6.6-4.2-18.5-11.9-26.5-17.1-8-5.2-20.4-13.3-27.5-17.9-7.1-4.6-16.6-10.8-21-13.6-4.4-2.9-18.8-12.2-32-20.7-13.2-8.4-29-18.6-35-22.6-6-3.9-45.6-29.5-88-56.9-42.4-27.3-82.3-53.2-88.8-57.4-6.5-4.2-17.1-11.1-23.5-15.3-6.4-4.3-11.9-7.8-12.2-7.8-0.3 0-7.5 4.5-16 10.1-8.5 5.6-32.4 21.2-53 34.7-20.6 13.6-41.1 27.4-45.5 30.8-4.4 3.5-10.5 8.9-13.6 12.1-3.1 3.2-7.2 8.1-9.1 10.8-2 2.8-4.9 7.7-6.6 11-1.6 3.3-3.9 9.1-5 13-1.2 3.9-2.9 11.5-3.7 17-1.1 6.2-1.4 12.3-1 16 0.3 3.3 1.5 8.7 2.5 12 1.1 3.3 3.7 8.2 5.8 10.9 2 2.7 5.3 6.2 7.2 7.7 1.9 1.6 6.1 3.8 9.3 4.9 3.5 1.2 8.3 2 12.4 2 4.1 0 9-0.7 12.3-1.9 3-1 9.8-4.3 15-7.3 5.2-3.1 27.3-16.2 49-29.3 21.7-13 39.6-24.1 39.8-24.6 0.1-0.5 0.7-0.9 1.2-0.9 0.5 0 1.2 0.8 1.5 1.8 0.2 0.9 2.8 3.1 5.7 4.8 2.9 1.7 14.1 8.5 24.8 15.1 10.7 6.6 31.2 19.2 45.5 28 14.3 8.8 40.9 25.2 59 36.3 18.1 11.2 44.7 27.5 59 36.3 14.3 8.8 31.6 19.5 38.5 23.7 6.9 4.2 40.9 25.2 75.5 46.5 34.6 21.4 71.8 44.2 82.5 50.8 10.7 6.6 22.2 13.8 25.5 16.2 3.3 2.3 8.6 7.1 11.8 10.6 3.4 3.7 7.5 9.8 9.8 14.4 3 6 4.4 10.7 5.8 19 1.1 6 2.7 17.8 3.6 26 0.9 8.3 2.3 20.2 3 26.5 0.8 6.3 2.1 17.6 3 25 0.9 7.4 2.2 19.1 3 26 0.8 6.9 2.1 18.4 3 25.5 0.8 7.1 2.2 19.5 3 27.5 0.9 8 2 16.5 2.5 19 0.5 2.5 0.8 4.5 0.7 4.6-0.1 0-87.7 44-194.7 97.6-107 53.7-198.8 99.4-204 101.6-5.2 2.2-12.6 5-16.5 6.1-3.9 1.2-11.3 3.1-16.5 4.2-7.2 1.6-14.3 2.3-29 2.7-15.4 0.4-21.7 0.1-30-1.2-5.8-1-14.8-2.9-20-4.3-5.2-1.4-12.9-3.8-17-5.5-4.1-1.6-29-13.6-55.3-26.6-26.2-13-47.7-23.9-47.7-24.2 0-0.3 4.4-2.8 9.8-5.5 5.3-2.8 23-12 39.2-20.4 16.2-8.5 32.4-17 36-18.9 3.6-1.9 17.7-9.3 31.5-16.5 13.7-7.1 39.6-20.6 57.5-29.9 17.9-9.4 34.8-18.6 37.6-20.7 2.8-2 7-5.8 9.4-8.6 2.4-2.7 5.2-7 6.4-9.5 1.6-3.5 2-6.5 2-13.5 0-7-0.6-10.3-2.4-15-1.3-3.3-4-7.8-5.9-9.9-2-2.1-6.1-5.8-9.1-8.1-3-2.3-7.3-5.1-9.5-6.2-2.2-1.2-7.7-3.2-12.3-4.7-4.5-1.4-13-3.1-19-3.8-8.2-0.9-13-0.9-20.7 0-5.5 0.6-13.1 2.2-17 3.5-3.9 1.3-9.9 3.7-13.5 5.3-3.6 1.5-21.8 10.9-40.5 20.7-18.7 9.9-58.8 31-89 47-30.3 15.9-60 31.6-66 34.8-6.1 3.1-15.1 7.2-20 8.9-7.4 2.7-11 3.4-20 3.8-10.2 0.4-11.8 0.2-21.5-2.6-8.4-2.5-25.9-10.6-87-40.7-42.1-20.6-76.8-37.5-77.3-37.5-0.4 0-0.8-0.6-1-1.2-0.2-0.7 0-4.4 0.5-8.3 0.4-3.8 1.5-13.5 2.3-21.5 0.9-8 2.2-19.9 3-26.5 0.8-6.6 2.1-18.3 3-26 0.9-7.7 2.2-19.4 3-26 0.8-6.6 2.1-18.5 3-26.5 0.9-8 2.2-19.9 3-26.5 0.8-6.6 2.1-18.3 3-26 0.8-7.7 2.2-20.1 3.1-27.5 0.8-7.4 1.9-16.9 2.4-21 0.5-4.1 1.9-15.8 3-26 1.1-10.2 2.2-20.5 2.5-23 0.3-2.5 1.9-16.2 3.6-30.5 1.6-14.3 3.6-32.1 4.5-39.5 0.8-7.4 2.4-21.1 3.5-30.5 1.1-9.3 2.4-20.8 2.9-25.5 0.5-4.7 1.6-14.8 2.5-22.5 0.9-7.7 2.5-19.2 3.6-25.5 1.1-6.3 3.9-17.1 6.1-24 2.3-6.9 7-17.9 10.3-24.5 3.4-6.6 8.1-14.9 10.5-18.5 2.5-3.6 7.7-10.3 11.6-15 3.9-4.7 10.5-11.5 14.5-15.1 4.1-3.6 10.3-8.8 13.9-11.6 3.6-2.8 15.3-11.3 26-18.8 10.7-7.6 36.4-25.8 57-40.3 20.6-14.6 58-41 83-58.7 25-17.7 58.5-41.4 74.5-52.7 16-11.2 45.4-32.1 65.5-46.3 20.1-14.1 37.4-26.6 38.5-27.6 1.1-1.1 2.2-1.9 2.5-1.9z"/>
		<path id="Шар 1" class="s1" d="m966 817l-474-270 7.4-209.9 415.6 256.9c0 0 22.9 14.4 28.4 35.2 5.5 20.9 22.6 187.8 22.6 187.8zm-467.5-609.6l1.5-199.4 346 244c0 0 61.6 49.2 67.4 102.4 5.8 53.2 14.9 132.4 14.9 132.4"/>
	</g>
</svg>